<?xml version="1.0" encoding="UTF-8"?>
<svg id="Layer_2" xmlns="http://www.w3.org/2000/svg" viewBox="0 0 758.03 729.71">
  <defs>
    <style>
      .cls-1 {
        fill: #66beff;
      }
    </style>
  </defs>
  <g id="Layer_1-2" data-name="Layer_1">
    <g>
      <path class="cls-1" d="M85.28,729.71c-29.49,0-57.1-3.46-85.28-11.13v-5.18c27.75,7.56,56.24,11.31,85.28,11.31,85.08,0,165.51-32.67,226.48-91.98,60.33-58.7,95.13-137.12,98.13-221.03-46.44-8.9-88.81-33.74-119.51-70.11-31.53-37.37-48.9-84.91-48.9-133.88,0-28.72,5.75-56.51,17.1-82.63-51.81-32.75-111.69-50.04-173.3-50.04-29.01,0-58.17,3.73-85.28,11.04v-5.17c27.53-7.42,55.84-10.87,85.28-10.87,63.29,0,124.77,17.97,177.8,51.98l1.81,1.16-.88,1.96c-11.63,26.05-17.53,53.83-17.53,82.57,0,47.79,16.95,94.19,47.72,130.66,30.41,36.04,72.57,60.47,118.7,68.81l2.12.38-.06,2.15c-2.52,86.02-37.93,166.5-99.71,226.6-61.91,60.23-143.58,93.39-229.96,93.39Z"/>
      <path class="cls-1" d="M449.2,415.42c-12.47,0-24.98-1.12-37.18-3.32l-2.12-.38.06-2.15c.1-3.58.16-6.75.16-9.69,0-55.44-14.21-110.17-41.09-158.26-26.06-46.62-63.63-86.52-108.64-115.39l-1.81-1.16.88-1.96C292.85,48.32,367.33,0,449.2,0c114.53,0,207.71,93.18,207.71,207.71,0,35.29-9.02,70.16-26.1,100.85l-.69,1.25-1.43.04c-55.53,1.35-102.94,40.07-115.29,94.17l-.32,1.4-1.37.43c-20.17,6.36-41.2,9.58-62.51,9.58ZM415.02,407.55c11.24,1.91,22.73,2.87,34.18,2.87,20.32,0,40.38-3,59.65-8.93,13.25-55.13,61.56-94.6,118.28-96.61,16.22-29.64,24.78-63.21,24.78-97.17,0-111.78-90.94-202.71-202.71-202.71-79.19,0-151.29,46.32-184.3,118.19,44.89,29.21,82.38,69.27,108.49,115.98,27.3,48.84,41.73,104.41,41.73,160.7,0,2.38-.03,4.91-.1,7.67Z"/>
      <path class="cls-1" d="M414.87,412.62l-2.86-.52c-47.27-8.54-90.47-33.58-121.63-70.51-31.53-37.37-48.9-84.91-48.9-133.88,0-29.44,6.04-57.91,17.97-84.61l1.19-2.65,2.45,1.57c45.7,29.3,83.84,69.82,110.3,117.16,27.3,48.84,41.73,104.41,41.73,160.7,0,2.99-.05,6.21-.16,9.84l-.09,2.9ZM262.84,127.82c-10.86,25.27-16.36,52.14-16.36,79.89,0,47.79,16.95,94.19,47.72,130.66,29.78,35.29,70.82,59.45,115.83,68.27.05-2.42.08-4.65.08-6.76,0-55.44-14.21-110.17-41.09-158.26-25.59-45.77-62.26-85.06-106.18-113.79Z"/>
      <path class="cls-1" d="M631.69,557.49c-69.67,0-126.34-56.68-126.34-126.34,0-9.52,1.07-19.03,3.17-28.24l.32-1.4,1.37-.43c49.58-15.63,90.86-49.35,116.24-94.95l.69-1.25,1.43-.03c1.04-.03,2.08-.04,3.12-.04,69.67,0,126.34,56.68,126.34,126.34s-56.68,126.34-126.34,126.34ZM513.09,405.4c-1.82,8.42-2.74,17.07-2.74,25.74,0,66.91,54.43,121.34,121.34,121.34s121.34-54.43,121.34-121.34-54.43-121.34-121.34-121.34c-.53,0-1.06,0-1.58.01-25.82,45.66-67.28,79.54-117.02,95.59Z"/>
      <path class="cls-1" d="M507.55,407.16l.97-4.25c12.87-56.33,62.23-96.66,120.05-98.06l4.37-.11-2.13,3.82c-26,46.72-68.3,81.27-119.1,97.29l-4.16,1.31ZM624.21,310.03c-52.1,3.17-96.29,39.26-109.75,89.65,46.27-15.71,84.98-47.32,109.75-89.65Z"/>
    </g>
  </g>
</svg>